<?xml version="1.0" encoding="utf-8"?>
<!-- Generator: Adobe Illustrator 23.0.5, SVG Export Plug-In . SVG Version: 6.00 Build 0)  -->
<svg version="1.1" id="Layer_1" xmlns="http://www.w3.org/2000/svg" xmlns:xlink="http://www.w3.org/1999/xlink" x="0px" y="0px"
	 viewBox="0 0 40 40" style="enable-background:new 0 0 40 40;" xml:space="preserve">
<style type="text/css">
	.st0{fill:#FFFFFF;}
</style>
<title>Asset 2</title>
<g id="Layer_1-2_1_">
	<g id="Layer_1-2-2_1_">
		<g id="Layer_1-2-2-2_1_">
			<path class="st0" d="M20,1c10.5,0,19,8.5,19,19s-8.5,19-19,19S1,30.5,1,20S9.5,1,20,1 M20,0C9,0,0,9,0,20s9,20,20,20s20-9,20-20
				S31,0,20,0z"/>
			<path class="st0" d="M30.3,14.8c-0.2-0.9-1-1.7-1.9-1.9c-2.8-0.3-5.6-0.4-8.4-0.4c0,0-6.7,0-8.4,0.4c-0.9,0.3-1.7,1-1.9,1.9
				c-0.6,3.4-0.6,7,0,10.4c0.2,0.9,1,1.7,1.9,1.9c1.7,0.5,8.4,0.5,8.4,0.5s6.7,0,8.4-0.5c0.9-0.2,1.7-1,1.9-1.9
				C30.9,21.8,30.9,18.3,30.3,14.8L30.3,14.8z M17.8,23.2v-6.4l5.6,3.2L17.8,23.2z"/>
		</g>
	</g>
</g>
</svg>
