<?xml version="1.0" encoding="utf-8"?>
<!-- Generator: Adobe Illustrator 23.0.5, SVG Export Plug-In . SVG Version: 6.00 Build 0)  -->
<svg version="1.1" id="Layer_1" xmlns="http://www.w3.org/2000/svg" xmlns:xlink="http://www.w3.org/1999/xlink" x="0px" y="0px"
	 viewBox="0 0 40 40" style="enable-background:new 0 0 40 40;" xml:space="preserve">
<style type="text/css">
	.st0{fill:#FFFFFF;}
</style>
<title>Asset 1</title>
<g>
	<g id="Layer_1-2_1_">
		<g id="Layer_1-2-2_1_">
			<g id="격리_모드_1_">
				<path class="st0" d="M20,1c10.5,0,19,8.5,19,19s-8.5,19-19,19S1,30.5,1,20S9.5,1,20,1 M20,0C9,0,0,9,0,20s9,20,20,20s20-9,20-20
					S31,0,20,0z"/>
				<path class="st0" d="M23.6,11.6h-7.1c-2.7,0-4.9,2.2-4.9,4.9l0,0v7.1c0,2.7,2.2,4.9,4.9,4.9h7.1c2.7,0,4.9-2.2,4.9-4.9l0,0v-7.1
					C28.4,13.7,26.3,11.6,23.6,11.6z M26.9,23.7c0,1.8-1.5,3.2-3.2,3.2h-7.3c-1.8,0-3.2-1.5-3.2-3.2v-7.3c0-1.8,1.5-3.2,3.2-3.2h7.3
					c1.8,0,3.2,1.5,3.2,3.2L26.9,23.7z"/>
				<path class="st0" d="M20,15.7c-2.4,0-4.4,2-4.4,4.4c0,2.4,2,4.4,4.4,4.4s4.4-2,4.4-4.4c0,0,0,0,0,0l0,0l0,0
					C24.4,17.6,22.4,15.7,20,15.7z M20,22.9c-1.6,0-2.8-1.3-2.8-2.8c0-1.6,1.3-2.8,2.8-2.8c1.6,0,2.8,1.2,2.8,2.8
					C22.9,21.6,21.6,22.9,20,22.9C20,22.9,20,22.9,20,22.9z"/>
				<circle class="st0" cx="24.5" cy="15.5" r="1"/>
			</g>
		</g>
	</g>
</g>
</svg>
