<svg id="Layer_1" data-name="Layer 1" xmlns="http://www.w3.org/2000/svg" viewBox="0 0 40 40"><defs><style>.cls-1{fill:#fff;}</style></defs><title>lang_wh</title><g id="Layer_1-2" data-name="Layer 1-2"><g id="Layer_1-2-2" data-name="Layer 1-2-2"><g id="격리_모드" data-name="격리 모드"><path class="cls-1" d="M20,1A19,19,0,1,1,1,20,19,19,0,0,1,20,1m0-1A20,20,0,1,0,40,20,20.06,20.06,0,0,0,20,0Z"/></g></g></g><path class="cls-1" d="M20,11.46A8.54,8.54,0,1,1,11.46,20,8.55,8.55,0,0,1,20,11.46Zm0,1.24a1.3,1.3,0,0,0-.93.5,4.72,4.72,0,0,0-.88,1.44,9.44,9.44,0,0,0-.44,1.3l-.13.47h4.76l-.13-.47a7.85,7.85,0,0,0-1-2.35c-.38-.54-.76-.89-1.25-.89ZM17.55,13l-.95.5A7.42,7.42,0,0,0,14,15.83l-.41.58h2.76l.07-.29a11.45,11.45,0,0,1,.68-2.1Zm4.9,0,.44,1a12.27,12.27,0,0,1,.68,2.1l.06.29H26.4L26,15.83a7.28,7.28,0,0,0-2.59-2.28Zm.14,4.61H17.4l0,.33a17.06,17.06,0,0,0,0,4l0,.33h5.19l0-.33a18.19,18.19,0,0,0,0-4Zm4.33,0H23.84l0,.41a18,18,0,0,1,0,3.88l0,.41h3.08l.08-.26a7.4,7.4,0,0,0,0-4.17Zm-10.76,0H13.08l-.08.27a7.31,7.31,0,0,0,0,4.17l.08.26h3.08l-.05-.41a19.35,19.35,0,0,1,0-3.88ZM26.4,23.59H23.63l-.06.29a12.27,12.27,0,0,1-.68,2.1l-.44,1,.95-.5A7.42,7.42,0,0,0,26,24.17Zm-4,0H17.62l.13.47a7.85,7.85,0,0,0,1,2.35c.38.54.76.89,1.25.89h0a1.32,1.32,0,0,0,.93-.5,4.85,4.85,0,0,0,.88-1.44,9.91,9.91,0,0,0,.44-1.3Zm-6,0H13.6l.41.58a7.2,7.2,0,0,0,2.59,2.28l.95.51-.44-1a12.27,12.27,0,0,1-.68-2.1Z"/></svg>