<?xml version="1.0" encoding="utf-8"?>
<!-- Generator: Adobe Illustrator 16.0.0, SVG Export Plug-In . SVG Version: 6.00 Build 0)  -->
<!DOCTYPE svg PUBLIC "-//W3C//DTD SVG 1.1//EN" "http://www.w3.org/Graphics/SVG/1.1/DTD/svg11.dtd">
<svg version="1.1" id="Layer_1" xmlns="http://www.w3.org/2000/svg" xmlns:xlink="http://www.w3.org/1999/xlink" x="0px" y="0px"
	 width="78.018px" height="90.009px" viewBox="0 0 78.018 90.009" enable-background="new 0 0 78.018 90.009" xml:space="preserve">
<g>
	<defs>
		<rect id="SVGID_1_" width="78.018" height="90.009"/>
	</defs>
	<clipPath id="SVGID_2_">
		<use xlink:href="#SVGID_1_"  overflow="visible"/>
	</clipPath>
	<path clip-path="url(#SVGID_2_)" fill="#EF4143" d="M71.65,16.865L45.383,1.704c-3.935-2.272-8.817-2.272-12.744,0L6.371,16.868
		H6.368C2.44,19.138,0,23.366,0,27.9v34.202c0,4.523,2.43,8.744,6.37,11.033l26.242,15.153c1.976,1.15,4.193,1.721,6.406,1.721
		c2.203,0,4.403-0.57,6.361-1.708l26.309-15.185c3.905-2.283,6.329-6.499,6.329-11.015V27.9
		C78.018,23.373,75.585,19.147,71.65,16.865"/>
	<path clip-path="url(#SVGID_2_)" fill="#FFFFFF" d="M50.038,43.935c1.018,0,1.425,0.518,1.425,1.556
		c0,3.13-2.042,5.479-5.285,5.479c-3.287,0-5.577-2.608-5.577-5.968c0-3.371,2.271-5.963,5.577-5.963
		c2.448,0,4.458,1.152,4.458,2.282c0,0.703-0.438,1.136-1.004,1.136c-1.104,0-1.332-1.18-3.454-1.18
		c-2.024,0-3.051,1.765-3.051,3.725c0,1.982,0.991,3.734,3.051,3.734c1.281,0,2.755-0.719,2.755-2.565H47.28
		c-0.665,0-1.137-0.471-1.137-1.133c0-0.681,0.517-1.103,1.137-1.103H50.038z"/>
	<path clip-path="url(#SVGID_2_)" fill="#FFFFFF" d="M31.411,50.813c2.611,0,5.033-1.959,5.033-4.621v-5.662
		c0-0.784-0.502-1.224-1.176-1.224c-0.672,0-1.174,0.44-1.174,1.224v5.536c0,1.442-1.249,2.528-2.739,2.528
		c-1.49,0-2.739-1.086-2.739-2.528v-5.536c0-0.784-0.502-1.224-1.175-1.224c-0.673,0-1.175,0.44-1.175,1.224v5.662
		c0,2.662,2.422,4.621,5.032,4.621H31.411z"/>
	<path clip-path="url(#SVGID_2_)" fill="#FFFFFF" d="M23.915,39.307c-0.873,0-1.134,0.642-1.134,0.642l-3.366,6.811l-3.39-6.811
		c0,0-0.267-0.642-1.15-0.642c-0.681,0-1.228,0.443-1.228,1.235v8.99c0,0.792,0.508,1.234,1.189,1.234
		c0.679,0,1.183-0.442,1.183-1.234v-5.086l2.421,4.958C18.684,49.83,19.04,50,19.415,50c0.374,0,0.734-0.17,0.979-0.596l2.415-4.958
		v5.086c0,0.792,0.505,1.234,1.189,1.234c0.68,0,1.185-0.442,1.185-1.234v-8.99C25.183,39.75,24.594,39.307,23.915,39.307"/>
	<path clip-path="url(#SVGID_2_)" fill="#FFFFFF" d="M39.814,40.967c0,0.603-0.489,1.092-1.092,1.092
		c-0.603,0-1.092-0.489-1.092-1.092c0-0.604,0.489-1.093,1.092-1.093C39.325,39.874,39.814,40.363,39.814,40.967"/>
	<path clip-path="url(#SVGID_2_)" fill="#FFFFFF" d="M39.814,44.72c0,0.604-0.489,1.092-1.092,1.092
		c-0.603,0-1.092-0.488-1.092-1.092c0-0.603,0.489-1.092,1.092-1.092C39.325,43.628,39.814,44.117,39.814,44.72"/>
	<path clip-path="url(#SVGID_2_)" fill="#FFFFFF" d="M58.403,39.038c-3.295,0-5.966,2.671-5.966,5.966s2.671,5.967,5.966,5.967
		c3.296,0,5.966-2.672,5.966-5.967S61.699,39.038,58.403,39.038 M60.848,47.141h-1.614v-1.559h-1.682l0.001,1.559h-1.592v-2.823
		l2.443-2.048l2.443,2.048V47.141z"/>
</g>
</svg>
